High Definition Movie: HD - BJ.avi

Members Video Posted 2-12-13

Screens:
 
http://bayimg.com/hajgJaAei

Enjoy :-)

Mediainfo:
HD-BJ.avi
Format                                   : DivX
Format/Info                              : Hack of AVI
File size                                : 900 MiB
Duration                                 : 20mn 20s
Overall bit rate                         : 6 185 Kbps

Video
ID                                       : 0
Format                                   : MPEG-4 Visual
Format settings, BVOP                    : No
Format settings, QPel                    : No
Format settings, GMC                     : No warppoints
Format settings, Matrix                  : Default (H.263)
Codec ID                                 : DX50
Codec ID/Hint                            : DivX 5
Duration                                 : 20mn 20s
Bit rate                                 : 5 982 Kbps
Width                                    : 1 280 pixels
Height                                   : 720 pixels
Display aspect ratio                     : 16:9
Frame rate                               : 29.970 fps
Color space                              : YUV
Chroma subsampling                       : 4:2:0
Bit depth                                : 8 bits
Scan type                                : Progressive
Compression mode                         : Lossy
Bits/(Pixel*Frame)                       : 0.217
Stream size                              : 870 MiB (97%)
Title                                    : Video
Writing library                          : DivX 6.6.1.4

Audio
ID                                       : 1
Format                                   : MPEG Audio
Format version                           : Version 1
Format profile                           : Layer 3
Mode                                     : Joint stereo
Mode extension                           : MS Stereo
Codec ID                                 : 55
Codec ID/Hint                            : MP3
Duration                                 : 20mn 20s
Bit rate mode                            : Constant
Bit rate                                 : 192 Kbps
Channel(s)                               : 2 channels
Sampling rate                            : 48.0 KHz
Compression mode                         : Lossy
Stream size                              : 27.9 MiB (3%)
Alignment                                : Split accross interleaves
Interleave, duration                     : 33 ms (1.00 video frame)
Interleave, preload duration             : 500 ms
Title                                    : Audio
Writing library                          : LAME3.96



